PathFileType	4	(x/y/z)	S04_P20_T21.trc
DataRate	CameraRate	NumFrames	NumMarkers	Units	OrigDataRate	OrigDataStartFrame	OrigNumFrames
240	240	8	51	mm	240	91	361
Frame#	Time	Sternum			R.Acromium			L.Acromium			Top.Head			R.ASIS			L.ASIS			R.PSIS			L.PSIS			R.Great.Tro			L.Great.Tro			R.Iliac.Crest			L.Iliac.Crest			V.Sacral			R.Thigh.Upper.Post			R.Thigh.Lower.Ant			R.Thigh.Lower.Post			R.Thigh.Upper.Ant			R.Knee.Lat			R.Knee.Med			R.Shank.Upper.Post			R.Shank.Lower.Ant			R.Shank.Lower.Post			R.Shank.Upper.Ant			R.Ankle.Lat			R.Ankle.Med			R.Heel.Upper			R.Heel.Med			R.Heel.Lat			R.Toe.Lat			R.Toe.Med			R.Toe.Tip			L.Thigh.Upper.Post			L.Thigh.Lower.Ant			L.Thigh.Lower.Post			L.Thigh.Upper.Ant			L.Knee.Lat			L.Knee.Med			L.Shank.Upper.Post			L.Shank.Lower.Ant			L.Shank.Lower.Post			L.Shank.Upper.Ant			L.Ankle.Lat			L.Ankle.Med			L.Heel.Upper			L.Heel.Med			L.Heel.Lat			L.Toe.Lat			L.Toe.Med			L.Toe.Tip			Cervical.Spine			Back			
		X1	Y1	Z1	X2	Y2	Z2	X3	Y3	Z3	X4	Y4	Z4	X5	Y5	Z5	X6	Y6	Z6	X7	Y7	Z7	X8	Y8	Z8	X9	Y9	Z9	X10	Y10	Z10	X11	Y11	Z11	X12	Y12	Z12	X13	Y13	Z13	X14	Y14	Z14	X15	Y15	Z15	X16	Y16	Z16	X17	Y17	Z17	X18	Y18	Z18	X19	Y19	Z19	X20	Y20	Z20	X21	Y21	Z21	X22	Y22	Z22	X23	Y23	Z23	X24	Y24	Z24	X25	Y25	Z25	X26	Y26	Z26	X27	Y27	Z27	X28	Y28	Z28	X29	Y29	Z29	X30	Y30	Z30	X31	Y31	Z31	X32	Y32	Z32	X33	Y33	Z33	X34	Y34	Z34	X35	Y35	Z35	X36	Y36	Z36	X37	Y37	Z37	X38	Y38	Z38	X39	Y39	Z39	X40	Y40	Z40	X41	Y41	Z41	X42	Y42	Z42	X43	Y43	Z43	X44	Y44	Z44	X45	Y45	Z45	X46	Y46	Z46	X47	Y47	Z47	X48	Y48	Z48	X49	Y49	Z49	X50	Y50	Z50	X51	Y51	Z51	

91	0.375	-815.11	1282.4	251.85	-943.59	1514.6	423.37	-945.22	1496.6	73.527	-940.8	1834.7	231.86	-856.77	1005.4	383.24	-867.15	1014.2	135.81	-1073.1	1033.4	297.59	-1068.1	1039.3	217.51	-934.19	924.81	455.13	-993.39	930.04	80.467	-940.52	1094.5	430.05	-960.63	1098.2	95.384	-1091.5	994.7	258.35	-845.66	676.75	444.89	-748.07	626.04	405.52	-814.32	591.87	428.65	-777.51	731.29	427.18	-771.55	537.13	418.08	-793.44	526.69	284.53	-820.26	307.42	412.69	-742.74	238.7	375.71	-811.43	238.45	397.62	-754.91	307.29	398.56	-784.38	125.29	379.1	-758.3	142.99	293.15	-838.88	83.063	316.3	-819.52	56.805	286.92	-832.13	50.547	349.83	-670.75	68.623	418.59	-621.76	80.542	306.15	-569.83	108.12	360.06	-1037.3	703.22	102.72	-969.61	597.36	109.68	-1038.7	614.98	115.65	-972.41	686.1	91.723	-1017.7	512.89	123.93	-1011	503.81	248.29	-1128	347.53	131.96	-1072.9	250.94	135.63	-1137.2	267.31	145.09	-1068.7	327.25	125.4	-1113.7	105.23	160.96	-1111.1	115.39	254.29	-1194.7	75.78	207.4	-1188.1	49.196	240.12	-1191.1	48.433	178.88	-1006.9	42.58	139.38	-975.37	44.827	255.89	-917.73	53.558	206.22	-993.26	1557.3	250.82	-1075.9	1302.6	231.84
92	0.37917	-809.66	1281.7	251.97	-938.28	1513.8	423.43	-939.53	1495.9	73.574	-935.5	1834	232.03	-851.26	1004.8	383.19	-862.04	1013.4	135.83	-1067.7	1032.8	297.8	-1062.8	1038.7	217.74	-928.72	924.17	455.25	-988.57	929.53	80.564	-935.11	1093.8	430.13	-955.38	1097.6	95.429	-1086.2	994.04	258.58	-840.98	675.81	444.89	-743.42	625.15	405.53	-809.68	590.95	428.55	-772.86	730.36	427.22	-766.35	536.65	418.04	-788.46	525.76	284.39	-810	305.87	412.56	-730.85	239.02	375.51	-799.55	237.15	397.48	-744.64	307.3	398.41	-769.66	124.58	378.82	-743.94	142.85	292.8	-823.46	81.232	316.07	-803.54	55.367	286.67	-815.91	48.872	349.62	-654.73	70.377	418.12	-606.25	83.192	305.52	-554.79	111.93	359.3	-1033.9	703.25	102.97	-966.83	597.01	109.84	-1035.9	614.99	115.88	-969.11	685.79	91.907	-1015.5	512.76	123.97	-1008.7	503.62	248.36	-1126.6	347.99	132.09	-1072	251.07	135.66	-1136.2	267.81	145.17	-1067.4	327.36	125.45	-1113.6	105.4	161.12	-1110.8	115.62	254.41	-1194.7	75.985	207.57	-1188	49.359	240.27	-1191.1	48.648	179.02	-1006.8	42.59	139.39	-975.31	44.687	255.92	-917.61	53.353	206.23	-987.81	1556.6	250.82	-1070.3	1301.9	231.74
93	0.38333	-804.21	1280.9	252.09	-932.95	1513.1	423.5	-933.85	1495.2	73.639	-930.2	1833.2	232.21	-845.73	1004.1	383.13	-856.92	1012.6	135.84	-1062.3	1032.1	298.03	-1057.5	1038	217.98	-923.19	923.5	455.36	-983.74	929	80.659	-929.69	1093.1	430.21	-950.13	1096.9	95.481	-1080.8	993.36	258.83	-836.3	674.82	444.91	-738.77	624.21	405.54	-805.06	589.99	428.46	-768.2	729.39	427.27	-761.18	536.12	418	-783.51	524.8	284.25	-799.91	304.4	412.39	-719.22	239.39	375.3	-787.9	235.95	397.3	-734.57	307.34	398.24	-755.26	124.01	378.51	-729.93	142.82	292.43	-808.37	79.574	315.82	-787.9	54.101	286.38	-800.02	47.381	349.38	-639.11	72.237	417.62	-591.15	85.92	304.86	-540.18	115.79	358.53	-1030.4	703.25	103.21	-963.96	596.64	110.01	-1032.9	614.97	116.1	-965.72	685.46	92.08	-1013.2	512.61	124	-1006.2	503.41	248.42	-1125.2	348.46	132.22	-1071.1	251.2	135.7	-1135	268.33	145.24	-1066.1	327.47	125.51	-1113.5	105.58	161.28	-1110.5	115.87	254.53	-1194.6	76.217	207.75	-1188	49.552	240.42	-1191	48.886	179.17	-1006.8	42.597	139.4	-975.23	44.55	255.96	-917.49	53.138	206.24	-982.37	1555.9	250.84	-1064.7	1301.2	231.66
94	0.3875	-798.75	1280.1	252.24	-927.61	1512.3	423.6	-928.16	1494.5	73.723	-924.9	1832.5	232.4	-840.17	1003.4	383.07	-851.78	1011.8	135.85	-1056.9	1031.4	298.27	-1052.2	1037.3	218.22	-917.59	922.81	455.46	-978.89	928.46	80.754	-924.25	1092.3	430.29	-944.87	1096.2	95.541	-1075.4	992.66	259.08	-831.6	673.79	444.95	-734.13	623.22	405.54	-800.44	588.99	428.36	-763.53	728.38	427.34	-756.03	535.55	417.97	-778.59	523.82	284.08	-790.01	303.01	412.19	-707.85	239.81	375.08	-776.49	234.85	397.08	-724.71	307.4	398.06	-741.23	123.56	378.16	-716.31	142.9	292.03	-793.64	78.074	315.52	-772.64	52.99	286.05	-784.5	46.057	349.1	-623.93	74.178	417.1	-576.49	88.703	304.19	-526.02	119.67	357.75	-1026.9	703.22	103.44	-960.98	596.26	110.16	-1029.9	614.92	116.31	-962.26	685.12	92.241	-1010.7	512.44	124.04	-1003.6	503.18	248.49	-1123.6	348.94	132.35	-1070.1	251.33	135.73	-1133.8	268.88	145.28	-1064.8	327.57	125.56	-1113.4	105.77	161.44	-1110.2	116.15	254.65	-1194.5	76.482	207.94	-1187.9	49.778	240.57	-1190.9	49.151	179.33	-1006.8	42.601	139.41	-975.15	44.417	255.99	-917.36	52.912	206.24	-976.92	1555.1	250.89	-1059.1	1300.5	231.61
95	0.39167	-793.28	1279.3	252.39	-922.26	1511.5	423.71	-922.46	1493.7	73.825	-919.58	1831.7	232.6	-834.58	1002.7	383.01	-846.63	1011	135.85	-1051.4	1030.7	298.52	-1046.9	1036.6	218.48	-911.93	922.11	455.55	-974.03	927.91	80.848	-918.8	1091.5	430.38	-939.61	1095.4	95.609	-1069.9	991.93	259.36	-826.89	672.74	445	-729.47	622.21	405.54	-795.8	587.96	428.27	-758.83	727.33	427.41	-750.89	534.95	417.95	-773.68	522.81	283.9	-780.31	301.69	411.95	-696.78	240.26	374.83	-765.36	233.83	396.81	-715.07	307.48	397.85	-727.58	123.22	377.77	-703.1	143.07	291.59	-779.3	76.717	315.19	-757.79	52.018	285.68	-769.41	44.883	348.78	-609.21	76.172	416.53	-562.3	91.513	303.49	-512.33	123.55	356.94	-1023.3	703.16	103.66	-957.9	595.86	110.31	-1026.8	614.85	116.53	-958.7	684.76	92.391	-1008.2	512.26	124.08	-1000.8	502.93	248.55	-1121.9	349.43	132.47	-1069	251.46	135.77	-1132.5	269.47	145.31	-1063.3	327.67	125.62	-1113.3	105.98	161.59	-1109.8	116.44	254.76	-1194.4	76.785	208.12	-1187.8	50.045	240.73	-1190.8	49.451	179.49	-1006.7	42.6	139.43	-975.06	44.287	256.01	-917.23	52.675	206.24	-971.47	1554.4	250.95	-1053.6	1299.8	231.58
96	0.39583	-787.81	1278.5	252.56	-916.9	1510.7	423.84	-916.77	1493	73.947	-914.26	1830.9	232.81	-828.97	1002	382.94	-841.45	1010.2	135.85	-1046	1029.9	298.79	-1041.5	1035.8	218.76	-906.21	921.39	455.64	-969.15	927.34	80.944	-913.33	1090.7	430.47	-934.35	1094.7	95.687	-1064.5	991.19	259.65	-822.13	671.67	445.05	-724.78	621.17	405.52	-791.14	586.92	428.17	-754.09	726.27	427.49	-745.75	534.31	417.92	-768.76	521.8	283.7	-770.83	300.44	411.67	-686.01	240.72	374.56	-754.51	232.9	396.5	-705.66	307.56	397.61	-714.37	122.97	377.34	-690.32	143.3	291.12	-765.4	75.485	314.81	-743.4	51.165	285.27	-754.76	43.84	348.42	-594.98	78.189	415.93	-548.59	94.323	302.76	-499.13	127.39	356.12	-1019.6	703.08	103.86	-954.7	595.45	110.44	-1023.5	614.74	116.73	-955.05	684.38	92.528	-1005.5	512.06	124.11	-997.92	502.66	248.61	-1120.2	349.93	132.58	-1067.9	251.59	135.8	-1131.1	270.08	145.32	-1061.8	327.76	125.68	-1113.2	106.21	161.74	-1109.4	116.77	254.87	-1194.3	77.135	208.31	-1187.6	50.358	240.9	-1190.7	49.79	179.65	-1006.7	42.592	139.45	-974.96	44.16	256.04	-917.09	52.425	206.24	-966.03	1553.6	251.03	-1048.1	1299	231.56
97	0.4	-782.34	1277.7	252.75	-911.53	1509.8	424	-911.06	1492.2	74.088	-908.93	1830.1	233.03	-823.33	1001.3	382.86	-836.25	1009.4	135.84	-1040.5	1029.2	299.07	-1036.1	1035.1	219.04	-900.42	920.66	455.71	-964.25	926.76	81.041	-907.84	1089.9	430.57	-929.08	1094	95.773	-1059	990.43	259.95	-817.33	670.59	445.11	-720.04	620.11	405.48	-786.43	585.86	428.07	-749.3	725.19	427.57	-740.59	533.66	417.89	-763.84	520.79	283.49	-761.57	299.25	411.35	-675.56	241.17	374.26	-743.98	232.03	396.15	-696.5	307.63	397.35	-701.6	122.78	376.86	-678	143.58	290.61	-751.96	74.362	314.38	-729.49	50.413	284.8	-740.61	42.909	348	-581.27	80.196	415.28	-535.4	97.101	302.01	-486.45	131.16	355.28	-1015.7	702.96	104.06	-951.39	595.03	110.57	-1020.2	614.61	116.93	-951.3	683.99	92.654	-1002.7	511.83	124.15	-994.89	502.36	248.67	-1118.3	350.44	132.69	-1066.7	251.72	135.84	-1129.6	270.71	145.32	-1060.1	327.86	125.73	-1113.1	106.47	161.88	-1109	117.12	254.97	-1194.1	77.536	208.49	-1187.5	50.725	241.06	-1190.6	50.176	179.82	-1006.6	42.576	139.48	-974.85	44.035	256.06	-916.95	52.164	206.24	-960.58	1552.8	251.14	-1042.6	1298.3	231.57
98	0.40417	-776.86	1276.9	252.95	-906.16	1509	424.17	-905.35	1491.4	74.249	-903.58	1829.3	233.26	-817.66	1000.5	382.77	-831.03	1008.6	135.83	-1035	1028.4	299.38	-1030.8	1034.3	219.35	-894.56	919.93	455.78	-959.32	926.17	81.141	-902.32	1089.1	430.68	-923.81	1093.2	95.87	-1053.6	989.65	260.28	-812.46	669.5	445.16	-715.26	619.05	405.42	-781.66	584.81	427.96	-744.44	724.1	427.65	-735.42	532.98	417.85	-758.9	519.78	283.26	-752.55	298.13	410.99	-665.46	241.61	373.92	-733.76	231.22	395.74	-687.58	307.68	397.05	-689.32	122.65	376.33	-666.17	143.88	290.06	-739.01	73.333	313.9	-716.09	49.744	284.29	-726.98	42.071	347.52	-568.12	82.163	414.58	-522.75	99.814	301.23	-474.31	134.81	354.42	-1011.8	702.82	104.25	-947.95	594.6	110.68	-1016.7	614.45	117.13	-947.45	683.59	92.767	-999.75	511.59	124.19	-991.73	502.05	248.72	-1116.4	350.97	132.78	-1065.5	251.86	135.87	-1128	271.37	145.3	-1058.4	327.95	125.78	-1113	106.77	162.01	-1108.6	117.5	255.06	-1194	77.996	208.67	-1187.4	51.152	241.23	-1190.5	50.614	179.98	-1006.6	42.551	139.52	-974.73	43.914	256.08	-916.8	51.89	206.24	-955.14	1552	251.27	-1037.1	1297.5	231.6
